<?xml version="1.0" standalone="no"?>
<!DOCTYPE svg PUBLIC "-//W3C//DTD SVG 20010904//EN"
 "http://www.w3.org/TR/2001/REC-SVG-20010904/DTD/svg10.dtd">
<svg version="1.0" xmlns="http://www.w3.org/2000/svg"
 width="2342.000000pt" height="2342.000000pt" viewBox="0 0 2342.000000 2342.000000"
 preserveAspectRatio="xMidYMid meet">
<metadata>
Created by potrace 1.14, written by Peter Selinger 2001-2017
</metadata>
<g transform="translate(0.000000,2342.000000) scale(0.100000,-0.100000)"
fill="#000000" stroke="none">
<path d="M0 11710 l0 -11710 11710 0 11710 0 0 11710 0 11710 -11710 0 -11710
0 0 -11710z m2515 2522 c41 -18 94 -70 114 -112 15 -32 16 -205 19 -1967 l2
-1933 1128 0 c755 0 1139 -4 1165 -11 21 -5 53 -24 73 -41 69 -61 68 -55 74
-440 l5 -348 181 288 c100 158 412 652 694 1097 282 446 522 825 533 843 l19
32 -245 393 c-909 1457 -1176 1887 -1193 1917 -10 21 -18 57 -18 90 -2 105 65
180 176 200 37 7 276 10 675 8 680 -3 655 -1 718 -66 17 -17 188 -317 380
-666 262 -476 353 -632 361 -623 6 7 167 289 358 627 191 338 360 631 375 650
15 19 45 44 67 55 38 19 59 20 679 20 606 0 642 -1 675 -19 46 -24 78 -54 97
-89 l14 -29 29 45 c19 30 43 52 76 68 l49 24 655 0 655 0 47 -23 c32 -16 57
-39 81 -75 30 -44 276 -487 616 -1109 47 -87 88 -157 91 -157 3 0 163 279 355
621 193 341 367 642 387 668 24 31 51 53 75 62 30 10 167 13 673 13 600 0 637
-1 670 -19 19 -10 47 -29 61 -42 l26 -24 19 21 c10 12 37 31 59 43 40 21 46
21 640 21 600 0 600 0 641 -22 59 -31 90 -74 113 -151 25 -86 814 -2876 838
-2961 13 -49 19 -59 25 -45 4 11 202 696 438 1524 237 828 441 1524 452 1548
26 54 77 89 151 102 37 7 249 10 599 8 538 -3 543 -3 584 -25 79 -42 120 -117
111 -202 -2 -25 -90 -298 -195 -606 -105 -308 -481 -1417 -837 -2465 -356
-1048 -656 -1920 -667 -1938 -11 -18 -41 -45 -66 -60 l-47 -27 -552 0 -551 0
-44 30 c-23 17 -53 49 -64 70 -17 32 -889 2607 -1548 4572 -55 167 -104 303
-108 303 -6 0 -1404 -2196 -1410 -2216 -2 -6 139 -238 313 -515 174 -277 515
-821 758 -1207 243 -387 451 -723 463 -745 27 -54 28 -129 0 -182 -25 -50 -45
-68 -102 -94 -44 -20 -63 -21 -705 -20 -734 0 -715 -2 -773 66 -18 21 -203
346 -411 721 l-379 684 -35 -59 c-19 -32 -202 -341 -406 -688 -239 -405 -386
-643 -410 -667 -21 -20 -56 -41 -77 -47 -61 -17 -1258 -15 -1315 2 -36 11 -49
11 -74 1 -40 -17 -1319 -20 -1380 -3 -22 6 -56 28 -76 48 -22 23 -174 286
-414 719 -208 375 -381 682 -385 682 -3 0 -190 -310 -414 -690 -261 -441 -420
-701 -442 -719 -18 -17 -50 -35 -71 -40 -25 -7 -255 -11 -654 -11 -644 0 -682
2 -728 44 -15 14 -22 12 -75 -15 l-59 -29 -1781 2 c-1967 3 -1803 -2 -1870 65
-60 59 -56 -127 -56 2596 l0 2503 23 44 c28 56 81 98 138 109 73 15 1108 8
1144 -7z m17827 -6 c52 -25 105 -87 115 -133 4 -21 8 -1156 8 -2523 l0 -2486
-26 -49 c-18 -35 -39 -59 -74 -80 l-48 -30 -551 -3 c-383 -2 -563 0 -589 8
-47 14 -115 74 -134 117 -11 27 -13 459 -13 2536 l0 2503 23 44 c30 59 83 99
143 110 27 4 288 7 579 6 494 -1 533 -2 567 -20z m1923 -3 c50 -27 80 -58 100
-105 13 -33 15 -303 15 -2535 0 -2408 -1 -2499 -19 -2539 -22 -48 -82 -101
-131 -114 -21 -6 -255 -10 -575 -10 -521 0 -542 1 -585 21 -56 25 -77 44 -104
94 l-21 40 -3 2485 c-2 2710 -6 2550 53 2613 38 40 67 57 116 66 24 5 285 8
579 7 527 -1 536 -1 575 -23z"/>
<path d="M1410 11585 l0 -2455 1735 0 1735 0 0 445 0 445 -1220 0 -1220 0 0
2010 0 2010 -515 0 -515 0 0 -2455z"/>
<path d="M5287 14008 c11 -18 344 -554 741 -1190 398 -637 725 -1164 728
-1172 3 -8 -224 -377 -557 -903 -695 -1097 -1003 -1584 -1013 -1600 -6 -10
115 -13 591 -13 l599 0 110 188 c725 1228 879 1483 889 1469 5 -8 215 -384
465 -836 l455 -821 627 0 627 0 -206 328 c-704 1121 -1276 2031 -1331 2119
-40 64 -61 107 -56 115 4 7 340 536 746 1175 406 640 738 1165 738 1168 0 3
-265 5 -588 5 l-589 0 -434 -771 c-239 -423 -441 -780 -450 -791 -15 -20 -33
11 -384 648 -203 368 -399 723 -435 789 l-67 120 -613 3 -612 2 19 -32z"/>
<path d="M9852 14018 c8 -13 228 -365 488 -783 261 -418 590 -946 732 -1173
142 -228 258 -419 258 -424 0 -6 -190 -310 -422 -677 -476 -751 -811 -1281
-998 -1576 -69 -110 -134 -212 -144 -227 l-18 -28 599 0 600 0 493 834 c272
459 496 833 500 831 3 -2 212 -377 465 -834 l460 -830 627 -1 628 0 -34 53
c-18 28 -378 602 -800 1275 l-767 1222 452 713 c249 391 583 917 742 1167 159
250 292 461 294 468 4 9 -117 12 -584 12 l-588 0 -444 -785 c-244 -432 -447
-788 -451 -790 -4 -3 -60 91 -124 208 -64 116 -259 471 -434 787 l-317 575
-614 3 -613 2 14 -22z"/>
<path d="M14361 14028 c0 -7 370 -1111 823 -2453 l823 -2440 491 -3 c271 -1
492 -1 492 0 0 2 375 1106 833 2453 l833 2450 -530 3 c-291 1 -531 0 -534 -2
-2 -3 -243 -838 -536 -1856 -292 -1018 -535 -1851 -541 -1851 -5 0 -66 201
-136 448 -157 553 -742 2620 -847 2990 l-77 273 -547 0 c-432 0 -548 -3 -547
-12z"/>
<path d="M9629 13948 c-7 -13 -255 -405 -552 -873 -297 -467 -618 -973 -714
-1123 l-173 -274 183 -291 c101 -161 428 -682 728 -1159 299 -478 546 -868
549 -868 3 1 159 245 347 543 188 298 511 809 718 1136 208 329 373 601 370
608 -2 8 -307 499 -677 1091 -369 592 -693 1112 -719 1155 -46 75 -48 77 -60
55z"/>
<path d="M19230 11585 l0 -2455 515 0 515 0 0 2455 0 2455 -515 0 -515 0 0
-2455z"/>
<path d="M21150 11585 l0 -2455 515 0 515 0 0 2455 0 2455 -515 0 -515 0 0
-2455z"/>
</g>
</svg>
